HIERARCHY
ROOT RootJoint
{
    OFFSET   0.000000   0.000000   0.000000
    CHANNELS 6 Xposition Yposition Zposition Xrotation Yrotation Zrotation
    JOINT pelvis_lowerback
    {
        OFFSET   0.000000   0.093605   0.000000
        CHANNELS 3 Xrotation Yrotation Zrotation
        JOINT lowerback_torso
        {
            OFFSET   0.000000   0.100000   0.000000
            CHANNELS 3 Xrotation Yrotation Zrotation
            JOINT torso_head
            {
                OFFSET   0.000000   0.282350   0.000000
                CHANNELS 3 Xrotation Yrotation Zrotation
                End Site
                {
                    OFFSET   0.000000   0.192650   0.000000
                }
            }
            JOINT rTorso_Clavicle
            {
                OFFSET  -0.001000   0.157500   0.000000
                CHANNELS 3 Xrotation Yrotation Zrotation
                JOINT rShoulder
                {
                    OFFSET  -0.117647   0.000000   0.000000
                    CHANNELS 3 Xrotation Yrotation Zrotation
                    JOINT rElbow
                    {
                        OFFSET  -0.245000   0.000000   0.000000
                        CHANNELS 3 Xrotation Yrotation Zrotation
                        JOINT rWrist
                        {
                            OFFSET  -0.240000   0.000000   0.000000
                            CHANNELS 3 Xrotation Yrotation Zrotation
                            End Site
                            {
                                OFFSET  -0.116353  -0.002500   0.000000
                            }
                        }
                    }
                }
            }
            JOINT lTorso_Clavicle
            {
                OFFSET   0.001000   0.157500   0.000000
                CHANNELS 3 Xrotation Yrotation Zrotation
                JOINT lShoulder
                {
                    OFFSET   0.117647   0.000000   0.000000
                    CHANNELS 3 Xrotation Yrotation Zrotation
                    JOINT lElbow
                    {
                        OFFSET   0.245000   0.000000   0.000000
                        CHANNELS 3 Xrotation Yrotation Zrotation
                        JOINT lWrist
                        {
                            OFFSET   0.240000   0.000000   0.000000
                            CHANNELS 3 Xrotation Yrotation Zrotation
                            End Site
                            {
                                OFFSET   0.116353  -0.002500   0.000000
                            }
                        }
                    }
                }
            }
        }
    }
    JOINT rHip
    {
        OFFSET  -0.100000  -0.051395   0.000000
        CHANNELS 3 Xrotation Yrotation Zrotation
        JOINT rKnee
        {
            OFFSET   0.000000  -0.410000   0.000000
            CHANNELS 3 Xrotation Yrotation Zrotation
            JOINT rAnkle
            {
                OFFSET   0.000000  -0.390000   0.000000
                CHANNELS 3 Xrotation Yrotation Zrotation
                JOINT rToeJoint
                {
                    OFFSET   0.000000  -0.050000   0.130000
                    CHANNELS 3 Xrotation Yrotation Zrotation
                    End Site
                    {
                        OFFSET  -0.010000   0.002000   0.060000
                    }
                }
            }
        }
    }
    JOINT lHip
    {
        OFFSET   0.100000  -0.051395   0.000000
        CHANNELS 3 Xrotation Yrotation Zrotation
        JOINT lKnee
        {
            OFFSET   0.000000  -0.410000   0.000000
            CHANNELS 3 Xrotation Yrotation Zrotation
            JOINT lAnkle
            {
                OFFSET   0.000000  -0.390000   0.000000
                CHANNELS 3 Xrotation Yrotation Zrotation
                JOINT lToeJoint
                {
                    OFFSET   0.000000  -0.050000   0.130000
                    CHANNELS 3 Xrotation Yrotation Zrotation
                    End Site
                    {
                        OFFSET   0.010000   0.002000   0.060000
                    }
                }
            }
        }
    }
}
MOTION
Frames: 7
Frame Time:   0.008333
 -2.475228   0.913249   5.140560  -3.712477 -18.474729   0.162118   8.581524   7.589174  -0.513456   6.810629   2.194772  -0.176705  -0.105797  -0.594661   1.385587   1.622227   0.403146   3.283250  -1.530238  12.175876  50.846334   0.011841  46.425535  -0.020170   0.690438   3.611243  -2.779778   8.861752   7.689025  -3.491571  25.647098  -8.926172 -55.758930  -0.014638 -16.506606  -0.001385   4.586799  -3.200591  -3.961393  15.034835   1.424090  -0.747037  10.831386   0.000216   0.000359  -7.780228   3.068369  -0.488765 -22.270905   0.000468   0.005586 -26.855460   4.461882   7.906550  23.524934   0.008979   0.053025 -10.427538  13.114803   3.262004  -4.816154   0.000784  -0.000019
 -2.476284   0.910644   5.153261  -3.729040 -18.936520  -0.007869   8.517448   7.859120  -0.435169   6.957138   2.447350  -0.149111  -0.238869  -0.651116   1.461486   1.467398   0.673793   3.283878  -1.899407  12.567530  50.800434   0.011300  47.269951  -0.019414   0.674954   3.587195  -2.712876   9.154106   8.049310  -3.613907  26.427584  -8.497617 -55.874803  -0.014507 -15.858077  -0.000771   4.580191  -3.160434  -4.180554  15.778311   1.340255  -0.933496  10.959638   0.000280  -0.000374  -8.114723   3.340013  -0.170379 -23.108009   0.000617   0.006961 -27.072172   4.425254   8.175324  21.475091   0.006105   0.049025 -10.800795  13.041116   3.357728  -4.893246   0.000245   0.000138
 -2.477267   0.908007   5.166128  -3.731595 -19.414263  -0.156747   8.439321   8.126313  -0.374390   7.085972   2.703602  -0.129223  -0.368073  -0.706337   1.535415   1.307898   0.937873   3.284380  -2.260451  12.946323  50.766758   0.010577  48.072977  -0.018337   0.662235   3.632272  -2.652046   9.454604   8.405591  -3.729112  27.181439  -8.081875 -55.989920  -0.014182 -15.237662  -0.000313   4.576974  -3.053494  -4.407279  16.495046   1.246141  -1.157101  11.105726   0.000353  -0.001080  -8.381466   3.583812   0.134707 -24.059181   0.000393   0.008723 -27.266472   4.390992   8.420310  19.608039   0.003725   0.045592 -11.150563  12.971727   3.447499  -4.986907  -0.000247   0.000323
 -2.478167   0.905047   5.179050  -3.703550 -19.927030  -0.244321   8.353934   8.401757  -0.360142   7.192898   2.965946  -0.132786  -0.492349  -0.758252   1.601887   1.146008   1.195553   3.272123  -2.611046  13.311107  50.740494   0.009683  48.833387  -0.017146   0.651967   3.730361  -2.593376   9.754292   8.753165  -3.816109  27.903359  -7.682972 -56.098678  -0.013568 -14.652741   0.000016   4.576396  -2.919834  -4.639379  17.166552   1.135047  -1.432020  11.296074   0.000416  -0.001931  -8.417810   3.790518   0.469922 -26.436053   0.000302   0.016796 -27.455444   4.362110   8.623426  17.886698   0.001915   0.043079 -11.476930  12.906871   3.531120  -5.079554  -0.000622   0.000513
 -2.479019   0.902117   5.192127  -3.663220 -20.391881  -0.375375   8.253482   8.656105  -0.291068   7.285609   3.215211  -0.119449  -0.609062  -0.807493   1.663620   0.992316   1.435295   3.264380  -2.939286  13.648494  50.708820   0.008853  49.539798  -0.015841   0.643201   3.827776  -2.557226  10.038178   9.082668  -3.915596  28.579953  -7.309829 -56.208397  -0.012868 -14.102721   0.000306   4.578941  -2.761509  -4.858189  17.839583   1.020310  -1.683031  11.456725   0.000494  -0.002410  -8.683947   3.974122   0.717864 -27.203673  -0.000739   0.016176 -27.627238   4.325724   8.844967  16.281765   0.000191   0.039865 -11.780977  12.845529   3.608810  -5.162449  -0.000862   0.000603
 -2.479820   0.899111   5.205301  -3.594879 -20.818151  -0.497755   8.143917   8.894045  -0.224154   7.358695   3.449733  -0.100014  -0.720539  -0.853657   1.723286   0.848767   1.658824   3.255643  -3.246649  13.964486  50.682845   0.008134  50.200845  -0.014625   0.634723   3.927304  -2.526297  10.305008   9.392685  -4.004101  29.212980  -6.961500 -56.315091  -0.012065 -13.589782   0.000527   4.581673  -2.609918  -5.071535  18.485237   0.918994  -1.943880  11.628319   0.000608  -0.002781  -8.854546   4.157378   0.964650 -28.172540  -0.001783   0.015956 -27.794752   4.292197   9.042255  14.787847  -0.001354   0.036462 -12.064650  12.788171   3.680965  -5.239950  -0.001020   0.000640
 -2.480590   0.895973   5.218545  -3.496713 -21.212863  -0.603400   8.029071   9.117520  -0.167115   7.415854   3.669591  -0.082160  -0.826832  -0.896771   1.779131   0.714057   1.868621   3.246389  -3.535029  14.261127  50.661725   0.007511  50.819617  -0.013527   0.626776   4.030401  -2.495929  10.554188   9.681944  -4.080396  29.804295  -6.636489 -56.415112  -0.011203 -13.111693   0.000654   4.584026  -2.469854  -5.273771  19.105323   0.826303  -2.195613  11.814606   0.000715  -0.003079  -8.966448   4.338114   1.212128 -29.287507  -0.002555   0.015948 -27.957479   4.261246   9.214572  13.397070  -0.002633   0.033103 -12.329405  12.734395   3.747939  -5.313028  -0.001115   0.000647
